<svg xmlns="http://www.w3.org/2000/svg" viewBox="0 0 594.68 181.55"><defs><style>.cls-1{fill:#00a6ce;}.cls-2{fill:#cdde00;}</style></defs><title>Asset 1</title><g id="Layer_2" data-name="Layer 2"><g id="SHAPE"><path class="cls-1" d="M0,116l9.67-10.73a22.32,22.32,0,0,0,7.54,7.2,17.5,17.5,0,0,0,8.51,2.28,9.07,9.07,0,0,0,6.28-2,6.8,6.8,0,0,0,2.23-5.36,7.13,7.13,0,0,0-.58-2.95,7.22,7.22,0,0,0-1.93-2.47,19.52,19.52,0,0,0-3.44-2.27,55.63,55.63,0,0,0-5.17-2.37q-4.35-1.74-8-3.62a27,27,0,0,1-6.23-4.4,18.18,18.18,0,0,1-4.07-5.85,19.79,19.79,0,0,1-1.45-7.88,20.29,20.29,0,0,1,7-15.57,23.56,23.56,0,0,1,7.83-4.5A29.68,29.68,0,0,1,28,53.88a31,31,0,0,1,13.44,2.66,30.87,30.87,0,0,1,9.67,7.1L41.87,75.05a17.29,17.29,0,0,0-5.37-4.64,14.62,14.62,0,0,0-7.2-1.74,8.65,8.65,0,0,0-5.42,1.64,5.23,5.23,0,0,0-2.12,4.36,5.41,5.41,0,0,0,2.7,4.49,47.6,47.6,0,0,0,9.09,4.4,49,49,0,0,1,8.17,3.87,25.83,25.83,0,0,1,6,4.83,18.81,18.81,0,0,1,3.67,6.24,24.26,24.26,0,0,1,1.26,8.17,22,22,0,0,1-1.93,9.38,21.39,21.39,0,0,1-5.37,7.16,24.2,24.2,0,0,1-8.12,4.59,31.92,31.92,0,0,1-10.3,1.59q-9.68,0-16.39-3.77A28.86,28.86,0,0,1,0,116Z"/><path class="cls-1" d="M54.82,128.14,84.7,55.23h16.15l29.39,72.91H110.33l-4.74-13.83H78.9l-5,13.83Zm46-27.46L97.27,90.23,92.63,75.92c-.77,2.39-1.55,4.76-2.32,7.11s-1.61,4.72-2.51,7.11l-3.87,10.54Z"/><path class="cls-1" d="M136.33,128.14V55.23H151l36.65,46.32L187,55.23h17.7v72.91H190.09L153.64,82.21l.39,45.93Z"/><path class="cls-1" d="M251,55.23h14.7L282.53,99.9l17.21-44.67h14.6l12.38,72.91H308.35l-5.61-41.77L286.4,128.14h-9L261.93,86.37l-6.28,41.77H237.86Z"/><path class="cls-1" d="M328.26,128.14l29.88-72.91h16.15l29.39,72.91H383.77L379,114.31H352.34l-5,13.83Zm46-27.46-3.58-10.45-4.64-14.31c-.77,2.39-1.55,4.76-2.32,7.11s-1.61,4.72-2.51,7.11l-3.87,10.54Z"/><path class="cls-1" d="M404.17,55.23H454V71.77H438.2v56.37H419.93V71.77H404.17Z"/><path class="cls-1" d="M506.27,55.23V70.12H479.78V82.5h25.14V96.91H479.78v16.34h26.88v14.89H461.89V55.23Z"/><path class="cls-2" d="M3.4,180.87v-36.4h7.24v29.69H21.46v6.71Z"/><path class="cls-2" d="M59.11,144.47h5.12l15.45,36.4h-8l-3-7.87H54.09l-3.24,7.87H43.18ZM66.3,167l-2-5.26c-.45-1.22-.9-2.43-1.35-3.62s-.9-2.4-1.35-3.62c-.45,1.22-.91,2.43-1.38,3.62s-.95,2.4-1.47,3.62L56.55,167Z"/><path class="cls-2" d="M102.61,180.87v-36.4h8.25a23,23,0,0,1,5.41.58,11.72,11.72,0,0,1,4.1,1.76,8.18,8.18,0,0,1,2.64,3,9.58,9.58,0,0,1,.94,4.39,8.39,8.39,0,0,1-1.19,4.42,7.73,7.73,0,0,1-3,2.92v.05A10.87,10.87,0,0,1,125,165a8.4,8.4,0,0,1,1.93,5.53,9.92,9.92,0,0,1-1,4.7,8.93,8.93,0,0,1-2.85,3.22,12.56,12.56,0,0,1-4.24,1.83,22.25,22.25,0,0,1-5.19.58Zm8.64-21.15a6.37,6.37,0,0,0,4.32-1.25A4.64,4.64,0,0,0,117,154.8a4,4,0,0,0-1.36-3.36,7.19,7.19,0,0,0-4.34-1h-1.6v9.32ZM113,174.88a8,8,0,0,0,5-1.3A4.29,4.29,0,0,0,119.7,170a4.45,4.45,0,0,0-1.64-3.62q-1.65-1.37-5.41-1.36h-3v9.85Z"/><path class="cls-2" d="M151,162.57a17.67,17.67,0,0,1,1.55-7.34,19,19,0,0,1,4.18-6,19.65,19.65,0,0,1,6.15-4,19.26,19.26,0,0,1,25.16,10,18.91,18.91,0,0,1,0,15,19,19,0,0,1-4.21,6,19.43,19.43,0,0,1-6.17,4,20,20,0,0,1-7.54,1.43,19.23,19.23,0,0,1-7.29-1.41,18.92,18.92,0,0,1-6.1-3.91,18.37,18.37,0,0,1-4.18-6A18.71,18.71,0,0,1,151,162.57Zm7.34.05a12.32,12.32,0,0,0,3.58,8.79,11.7,11.7,0,0,0,8.25,3.42,11.72,11.72,0,0,0,4.73-.94,12.32,12.32,0,0,0,3.82-2.56,11.55,11.55,0,0,0,2.56-3.83,13.27,13.27,0,0,0,0-9.66,11.8,11.8,0,0,0-2.54-3.84,12.13,12.13,0,0,0-3.79-2.56,12,12,0,0,0-9.32,0,11.88,11.88,0,0,0-3.79,2.59,12.31,12.31,0,0,0-2.56,3.83A12.1,12.1,0,0,0,158.32,162.62Z"/><path class="cls-2" d="M220.38,144.47a24.94,24.94,0,0,1,5.74.62,12.7,12.7,0,0,1,4.49,2,9.32,9.32,0,0,1,2.95,3.48,11.22,11.22,0,0,1,1.06,5.07,10.27,10.27,0,0,1-1.88,6.11A12.93,12.93,0,0,1,227,166l10.72,14.92h-8.69l-9.13-14.15h-1.06v14.15h-7.24v-36.4ZM218.88,161h1.59a9,9,0,0,0,5.17-1.26,4.52,4.52,0,0,0,1.84-4,4.31,4.31,0,0,0-1.74-3.81,8.91,8.91,0,0,0-5.07-1.21h-1.79Z"/><path class="cls-2" d="M276.32,144.47h5.12l15.45,36.4h-8l-3-7.87H271.3l-3.24,7.87h-7.67ZM283.51,167l-2-5.26c-.45-1.22-.9-2.43-1.35-3.62s-.9-2.4-1.35-3.62c-.45,1.22-.91,2.43-1.37,3.62s-1,2.4-1.48,3.62L273.76,167Z"/><path class="cls-2" d="M316.68,144.47h23.56v6.71h-8.11v29.69h-7.29V151.18h-8.16Z"/><path class="cls-2" d="M361.73,162.57a17.66,17.66,0,0,1,1.54-7.34,19,19,0,0,1,4.18-6,19.65,19.65,0,0,1,6.15-4,19.24,19.24,0,0,1,25.16,10,18.91,18.91,0,0,1,0,15,18.79,18.79,0,0,1-4.2,6,19.36,19.36,0,0,1-6.18,4,19.9,19.9,0,0,1-7.53,1.43,19.16,19.16,0,0,1-7.29-1.41,18.86,18.86,0,0,1-6.11-3.91,18.37,18.37,0,0,1-4.18-6A18.71,18.71,0,0,1,361.73,162.57Zm7.34.05a12.34,12.34,0,0,0,1,4.9,12.21,12.21,0,0,0,2.61,3.89,11.56,11.56,0,0,0,3.79,2.53,11.42,11.42,0,0,0,4.46.89,11.76,11.76,0,0,0,4.74-.94,12.28,12.28,0,0,0,3.81-2.56A11.4,11.4,0,0,0,392,167.5a13.14,13.14,0,0,0,0-9.66,11.65,11.65,0,0,0-2.54-3.84,12,12,0,0,0-3.79-2.56,11.58,11.58,0,0,0-4.68-.94,11.44,11.44,0,0,0-4.63.94,11.77,11.77,0,0,0-3.79,2.59,12.14,12.14,0,0,0-2.56,3.83A11.93,11.93,0,0,0,369.07,162.62Z"/><path class="cls-2" d="M434.58,144.47a25.09,25.09,0,0,1,5.75.62,12.87,12.87,0,0,1,4.49,2,9.39,9.39,0,0,1,2.94,3.48,11.22,11.22,0,0,1,1.06,5.07,10.2,10.2,0,0,1-1.88,6.11,12.82,12.82,0,0,1-5.7,4.22L452,180.87h-8.69l-9.12-14.15h-1.07v14.15h-7.24v-36.4ZM433.08,161h1.6a9,9,0,0,0,5.16-1.26,4.5,4.5,0,0,0,1.84-4,4.31,4.31,0,0,0-1.74-3.81,8.91,8.91,0,0,0-5.07-1.21h-1.79Z"/><path class="cls-2" d="M479.77,180.87v-36.4H487v36.4Z"/><path class="cls-2" d="M507.92,162.57a17.66,17.66,0,0,1,1.54-7.34,19,19,0,0,1,4.18-6,19.69,19.69,0,0,1,6.16-4,19.23,19.23,0,0,1,25.15,10,18.91,18.91,0,0,1,0,15,18.79,18.79,0,0,1-4.2,6,19.36,19.36,0,0,1-6.18,4,19.9,19.9,0,0,1-7.53,1.43,19.16,19.16,0,0,1-7.29-1.41,18.86,18.86,0,0,1-6.11-3.91,18.37,18.37,0,0,1-4.18-6A18.71,18.71,0,0,1,507.92,162.57Zm7.34.05a12.34,12.34,0,0,0,1,4.9,12.54,12.54,0,0,0,2.61,3.89,11.56,11.56,0,0,0,3.79,2.53,11.43,11.43,0,0,0,4.47.89,11.75,11.75,0,0,0,4.73-.94,12.16,12.16,0,0,0,3.81-2.56,11.25,11.25,0,0,0,2.56-3.83,13.14,13.14,0,0,0,0-9.66,11.78,11.78,0,0,0-2.53-3.84,12.25,12.25,0,0,0-3.79-2.56,11.63,11.63,0,0,0-4.69-.94,11.48,11.48,0,0,0-4.63.94,11.77,11.77,0,0,0-3.79,2.59,12.31,12.31,0,0,0-2.56,3.83A11.93,11.93,0,0,0,515.26,162.62Z"/><path class="cls-2" d="M569.52,173.72l5-3.71a10.25,10.25,0,0,0,3.33,4,7.64,7.64,0,0,0,4.29,1.28A4.91,4.91,0,0,0,585.7,174a4.39,4.39,0,0,0,1.25-3.26,5.09,5.09,0,0,0-.29-1.81,4.16,4.16,0,0,0-1-1.52,10.08,10.08,0,0,0-1.93-1.45,26.15,26.15,0,0,0-3-1.5,43.86,43.86,0,0,1-4-1.95,13.38,13.38,0,0,1-3-2.22,8.81,8.81,0,0,1-1.85-2.8,9.36,9.36,0,0,1-.66-3.65,9.45,9.45,0,0,1,3.21-7.19,11.51,11.51,0,0,1,3.62-2.13,14.46,14.46,0,0,1,11.11.75,12.73,12.73,0,0,1,4.47,4.13L589,153.59A8.68,8.68,0,0,0,586.4,151a6.5,6.5,0,0,0-3.5-.91,4.64,4.64,0,0,0-3.14,1,3.23,3.23,0,0,0-1.21,2.54,3,3,0,0,0,.32,1.35,4.09,4.09,0,0,0,1.06,1.26,10.24,10.24,0,0,0,2,1.25c.84.42,1.87.9,3.09,1.45a27.47,27.47,0,0,1,4.18,2.15,12.38,12.38,0,0,1,2.89,2.51,9.42,9.42,0,0,1,1.7,3.11,13.34,13.34,0,0,1,.55,4,11,11,0,0,1-.89,4.47,10.17,10.17,0,0,1-2.49,3.43,11.1,11.1,0,0,1-3.77,2.19,13.85,13.85,0,0,1-4.73.78A16.51,16.51,0,0,1,578,181a13.7,13.7,0,0,1-3.66-1.62,12.85,12.85,0,0,1-4.86-5.63Z"/><path class="cls-1" d="M594.68,91.74A36.91,36.91,0,0,1,591.57,107a36.11,36.11,0,0,1-8.47,11.91,38.8,38.8,0,0,1-12.56,7.76,42.18,42.18,0,0,1-15.3,2.75,41.69,41.69,0,0,1-15-2.72A36.85,36.85,0,0,1,516.2,91.53a36.05,36.05,0,0,1,3.1-15,37.07,37.07,0,0,1,8.48-11.92,38.4,38.4,0,0,1,9.09-6.32V31.59H529v-9h17.36V72.51a19.78,19.78,0,0,0-5.68,4,21.2,21.2,0,0,0-4.35,6.73,21.63,21.63,0,0,0-1.61,8.34,21.86,21.86,0,0,0,1.65,8.57,20.44,20.44,0,0,0,19,12.65,21.37,21.37,0,0,0,8.29-1.59,20.51,20.51,0,0,0,6.64-4.41,20.25,20.25,0,0,0,4.41-6.69,23,23,0,0,0,0-16.86,21.2,21.2,0,0,0-4.35-6.73,19.93,19.93,0,0,0-5.77-4.11V22.61H581.9v9H574V58.21a38.45,38.45,0,0,1,9.14,6.39,37.31,37.31,0,0,1,8.42,12A36.68,36.68,0,0,1,594.68,91.74Z"/><ellipse class="cls-2" cx="564.55" cy="14.46" rx="5.27" ry="5.12"/><circle class="cls-2" cx="555.62" cy="27.19" r="4.58"/><circle class="cls-2" cx="549.34" cy="6.29" r="6.29"/><path class="cls-2" d="M572.32,91.41A17.11,17.11,0,0,1,564.2,106a16.31,16.31,0,0,1-8.57,2.41,16.86,16.86,0,0,1-16.69-17c0-.15,0-.3,0-.45a9.25,9.25,0,0,0,14.44-2.11l.14-.25a11.71,11.71,0,0,1,17.67-3.33A17.17,17.17,0,0,1,572.32,91.41Z"/></g></g></svg>